<svg width="26" height="25" viewBox="0 0 26 25" fill="none" xmlns="http://www.w3.org/2000/svg">
<path d="M13.0214 6.02261C9.27949 6.02261 6.23462 8.90764 6.23462 12.4542C6.23462 16.0003 9.27906 18.8853 13.0214 18.8853C16.7632 18.8853 19.8081 16.0003 19.8081 12.4542C19.8081 8.90764 16.7632 6.02261 13.0214 6.02261ZM13.0214 16.5176C10.642 16.5176 8.70666 14.6944 8.70666 12.4542C8.70666 10.2135 10.642 8.39076 13.0214 8.39076C15.4003 8.39076 17.336 10.2135 17.336 12.4542C17.336 14.6948 15.4007 16.5176 13.0214 16.5176Z" fill="white"/>
<path d="M18.5163 0H7.48373C3.35743 0 0 3.21537 0 7.16799V17.832C0 21.7842 3.35701 25 7.48373 25H18.5163C22.643 25 26 21.7842 26 17.832V7.16799C26 3.21578 22.643 0 18.5163 0ZM23.5233 17.832C23.5233 20.4763 21.2771 22.6278 18.5163 22.6278H7.48373C4.72294 22.6278 2.47672 20.4763 2.47672 17.832V7.16799C2.47672 4.52368 4.72294 2.37222 7.48373 2.37222H18.5163C21.2771 2.37222 23.5233 4.52368 23.5233 7.16799V17.832Z" fill="white"/>
<path d="M19.9289 7.28938C20.8108 7.28938 21.5257 6.60461 21.5257 5.7599C21.5257 4.91519 20.8108 4.23042 19.9289 4.23042C19.047 4.23042 18.332 4.91519 18.332 5.7599C18.332 6.60461 19.047 7.28938 19.9289 7.28938Z" fill="white"/>
</svg>
