<svg width="25" height="26" viewBox="0 0 25 26" fill="none" xmlns="http://www.w3.org/2000/svg">
<path d="M23.0915 18.8098C22.3327 18.1459 21.466 17.5931 20.7072 17.0398C19.0813 15.8231 17.5642 15.8231 16.3721 17.7037C15.7216 18.8098 14.7462 18.8098 13.7712 18.3676C11.0615 17.0403 8.89392 15.1598 7.59347 12.2836C7.05132 11.0669 7.05132 9.85022 8.35227 8.96522C9.00275 8.52297 9.76105 7.96965 9.65272 6.86352C9.54439 5.53626 6.40136 1.00118 5.10091 0.55842C4.55877 0.337297 4.01713 0.337297 3.47498 0.55842C0.548601 1.55399 -0.751843 4.09793 0.440273 6.97408C3.90829 15.8231 10.1944 21.9071 18.648 25.6677C19.1896 25.8888 19.7318 25.8889 19.9484 25.9994C21.8994 25.9994 24.1753 24.1188 24.8257 22.2388C25.4762 20.4688 24.1753 19.6948 23.0915 18.8098Z" fill="black"/>
<path d="M13.5534 1.33317C14.544 1.49281 15.442 1.7098 16.2702 1.97794C16.4104 2.02341 16.5572 2.06422 16.6929 2.11279C16.7415 2.13035 16.7855 2.15153 16.8336 2.16962C17.7109 2.49613 18.497 2.89085 19.1885 3.36926C21.6203 5.05093 22.941 7.72145 23.4153 11.7311C23.4153 12.3945 23.1986 13.2795 24.0658 13.2795C24.0658 13.2795 24.0658 13.2795 24.0663 13.2795C24.9334 13.2795 24.7168 12.3945 24.7168 11.8417C24.7775 8.41943 23.1581 5.17234 20.6686 2.94665C19.1784 1.61474 17.3763 0.650689 15.4365 0.232209C15.2158 0.184678 14.9935 0.141796 14.7698 0.108215C14.4043 0.0539672 14.0348 0.0193522 13.6622 0.00591949C13.6086 0.0198688 13.5463 0.0250352 13.4785 0.0250352C13.3134 0.0255519 13.1206 -0.00286342 12.9368 0.000236431C12.58 -0.000280211 12.2555 0.0947818 12.2535 0.664638C12.2535 0.666188 12.2529 0.667738 12.2524 0.669804C12.2529 1.33317 13.0118 1.22261 13.5534 1.33317Z" fill="black"/>
<path d="M14.6382 3.21296C14.0965 3.1024 13.2294 2.7702 13.1211 3.6552C13.0128 4.54021 13.8794 4.42965 14.4215 4.54021C18.3229 5.42522 19.6233 6.86303 20.2738 10.7347C20.3821 11.2876 20.1654 12.1726 21.1409 12.062C21.8992 11.9514 21.5742 11.177 21.6825 10.7347C21.6825 6.97411 18.5395 3.65572 14.6382 3.21296Z" fill="black"/>
<path d="M14.9627 6.31003C14.5289 6.31003 14.0956 6.31003 13.9873 6.75227C13.7706 7.41616 14.3128 7.52672 14.7461 7.63728C16.3715 7.85892 17.2386 8.74341 17.347 10.4029C17.4553 10.8456 17.6725 11.1773 18.1058 11.1773C18.7562 11.0667 18.7562 10.5134 18.7562 10.0712C18.7562 8.19112 16.8053 6.19998 14.9627 6.31003Z" fill="black"/>
</svg>
