<svg width="26" height="43" viewBox="0 0 26 43" fill="none" xmlns="http://www.w3.org/2000/svg">
<path d="M12.8141 29.5243C14.5347 29.5243 16.0246 28.9072 17.242 27.6896C18.4594 26.4723 19.0765 24.9827 19.0765 23.2619C19.0765 21.5417 18.4594 20.052 17.2418 18.8343C16.0242 17.6171 14.5345 17 12.8141 17C11.0933 17 9.60379 17.6171 8.38643 18.8345C7.16907 20.0518 6.55176 21.5415 6.55176 23.2619C6.55176 24.9827 7.16907 26.4725 8.38663 27.6898C9.60419 28.907 11.0939 29.5243 12.8141 29.5243Z" fill="black"/>
<path d="M23.7722 36.9926C23.7371 36.486 23.666 35.9334 23.5615 35.3498C23.456 34.7618 23.3201 34.206 23.1574 33.698C22.9894 33.1729 22.7609 32.6544 22.4784 32.1575C22.1853 31.6418 21.8409 31.1927 21.4545 30.8231C21.0504 30.4365 20.5557 30.1257 19.9836 29.899C19.4135 29.6734 18.7817 29.5592 18.1059 29.5592C17.8405 29.5592 17.5838 29.6681 17.0881 29.9908C16.783 30.1898 16.4261 30.4199 16.0278 30.6744C15.6872 30.8914 15.2258 31.0947 14.6559 31.2788C14.0999 31.4587 13.5354 31.5499 12.9782 31.5499C12.421 31.5499 11.8566 31.4587 11.3 31.2788C10.7307 31.0949 10.2693 30.8916 9.92912 30.6746C9.53458 30.4224 9.17752 30.1923 8.86787 29.9906C8.37276 29.6679 8.11588 29.559 7.85046 29.559C7.17444 29.559 6.54285 29.6734 5.97295 29.8992C5.40126 30.1255 4.90634 30.4363 4.50188 30.8233C4.11566 31.1931 3.7711 31.642 3.47832 32.1575C3.19604 32.6544 2.96753 33.1727 2.79932 33.6982C2.63686 34.2062 2.50098 34.7618 2.39545 35.3498C2.29091 35.9326 2.21989 36.4854 2.18478 36.9932C2.15027 37.4907 2.13281 38.0071 2.13281 38.5286C2.13281 39.8858 2.56425 40.9845 3.41504 41.7948C4.25531 42.5944 5.36714 43.0001 6.71919 43.0001H19.2384C20.5904 43.0001 21.7018 42.5946 22.5423 41.7948C23.3933 40.9851 23.8247 39.8862 23.8247 38.5284C23.8245 38.0045 23.8069 37.4877 23.7722 36.9926Z" fill="black"/>
</svg>
