<svg width="30" height="31" viewBox="0 0 30 31" fill="none" xmlns="http://www.w3.org/2000/svg">
<path d="M25.6298 4.50502C22.8097 1.60128 19.059 0.00153772 15.0631 0C6.82999 0 0.128595 6.89054 0.125604 15.3603C0.124607 18.0677 0.812441 20.7106 2.11932 23.0397L0 31L7.91856 28.8641C10.1002 30.0881 12.5569 30.7329 15.0566 30.734H15.0626C23.2951 30.734 29.9965 23.8424 30 15.3731C30.0025 11.2679 28.4504 7.40875 25.6298 4.50502ZM15.0635 28.1393H15.0586C12.8306 28.1383 10.6455 27.5227 8.73947 26.3597L8.2859 26.0829L3.5867 27.3505L4.84075 22.6389L4.54568 22.1555C3.3031 20.1227 2.64666 17.7735 2.64766 15.3608C2.65015 8.32114 8.22011 2.59414 15.068 2.59414C18.3841 2.59517 21.5013 3.9253 23.8454 6.3385C26.1895 8.7517 27.4794 11.9594 27.4784 15.3711C27.476 22.4118 21.9065 28.1393 15.0635 28.1393Z" fill="black"/>
<path d="M21.8735 18.5765C21.5002 18.3843 19.6655 17.456 19.3231 17.3279C18.9812 17.1998 18.7319 17.1357 18.4832 17.5201C18.2345 17.9045 17.5193 18.7687 17.3014 19.025C17.0836 19.2813 16.8658 19.3131 16.493 19.1209C16.1197 18.9287 14.917 18.5237 13.4914 17.2156C12.3819 16.1977 11.6328 14.9408 11.415 14.5569C11.1972 14.1725 11.3916 13.9649 11.5785 13.7737C11.7464 13.6015 11.9518 13.3252 12.1382 13.1012C12.3246 12.8772 12.3869 12.7168 12.5115 12.461C12.6361 12.2047 12.5738 11.9807 12.4806 11.7885C12.3874 11.5963 11.6408 9.70694 11.3298 8.93859C11.0267 8.19023 10.7192 8.29172 10.4899 8.27993C10.2726 8.26865 10.0234 8.2666 9.77465 8.2666C9.52593 8.2666 9.12171 8.36245 8.77929 8.74688C8.43736 9.13132 7.4729 10.0596 7.4729 11.9489C7.4729 13.8383 8.81019 15.6636 8.9971 15.9193C9.18351 16.1756 11.6288 20.0522 15.373 21.715C16.2637 22.1107 16.9585 22.3465 17.5008 22.5234C18.395 22.8155 19.2084 22.7745 19.8519 22.6756C20.5691 22.5654 22.06 21.7473 22.371 20.8508C22.682 19.9543 22.682 19.1855 22.5888 19.0255C22.4956 18.8651 22.2469 18.7687 21.8735 18.5765Z" fill="black"/>
</svg>
