<svg width="18" height="41" viewBox="0 0 18 41" fill="none" xmlns="http://www.w3.org/2000/svg">
<path d="M5.93251 2.11172C7.43911 0.589708 9.57195 0.0723874 11.5933 0.0124806C13.7267 -0.00748836 15.8601 0.00249612 17.993 0.00249612C18.0023 2.40002 18.0023 4.78756 17.993 7.18508C16.6178 7.18508 15.2327 7.18508 13.8576 7.18508C12.9872 7.12517 12.0892 7.83157 11.9302 8.75701C11.9114 10.3589 11.9208 11.9602 11.9208 13.562C13.9415 13.572 15.9628 13.562 17.9836 13.572C17.8339 15.8897 17.5628 18.198 17.2446 20.4863C15.4575 20.5062 13.6704 20.4863 11.8832 20.4963C11.8644 27.3306 11.8926 34.155 11.8738 40.99C9.21628 41 6.56872 40.98 3.91118 41C3.86423 34.1656 3.91118 27.3313 3.88301 20.4963C2.5918 20.4863 1.29121 20.5062 0 20.4863C0.00939059 18.188 0 15.8903 0 13.602C1.29121 13.582 2.5918 13.602 3.88301 13.592C3.92057 11.3636 3.84545 9.12519 3.92057 6.89678C4.06143 5.11642 4.68825 3.33544 5.93251 2.11172Z" fill="#468DD1"/>
</svg>
