<svg width="41" height="42" viewBox="0 0 41 42" fill="none" xmlns="http://www.w3.org/2000/svg">
<path d="M20.4788 10.5454C14.5942 10.5454 9.80566 15.2641 9.80566 21.0646C9.80566 26.8645 14.5935 31.5831 20.4788 31.5831C26.3635 31.5831 31.152 26.8645 31.152 21.0646C31.152 15.2641 26.3635 10.5454 20.4788 10.5454ZM20.4788 27.7105C16.737 27.7105 13.6933 24.7286 13.6933 21.0646C13.6933 17.3999 16.737 14.4187 20.4788 14.4187C24.22 14.4187 27.2643 17.3999 27.2643 21.0646C27.2643 24.7293 24.2207 27.7105 20.4788 27.7105Z" fill="black"/>
<path d="M20.4788 10.5454C14.5942 10.5454 9.80566 15.2641 9.80566 21.0646C9.80566 26.8645 14.5935 31.5831 20.4788 31.5831C26.3635 31.5831 31.152 26.8645 31.152 21.0646C31.152 15.2641 26.3635 10.5454 20.4788 10.5454ZM20.4788 27.7105C16.737 27.7105 13.6933 24.7286 13.6933 21.0646C13.6933 17.3999 16.737 14.4187 20.4788 14.4187C24.22 14.4187 27.2643 17.3999 27.2643 21.0646C27.2643 24.7293 24.2207 27.7105 20.4788 27.7105Z" fill="url(#paint0_linear)"/>
<path d="M29.1196 0.694336H11.7693C5.28006 0.694336 0 5.95326 0 12.418V29.8596C0 36.3236 5.27939 41.5832 11.7693 41.5832H29.1196C35.6095 41.5832 40.8889 36.3236 40.8889 29.8596V12.418C40.8889 5.95392 35.6095 0.694336 29.1196 0.694336ZM36.9939 29.8596C36.9939 34.1845 33.4614 37.7033 29.1196 37.7033H11.7693C7.42753 37.7033 3.89501 34.1845 3.89501 29.8596V12.418C3.89501 8.09307 7.42753 4.57424 11.7693 4.57424H29.1196C33.4614 4.57424 36.9939 8.09307 36.9939 12.418V29.8596Z" fill="black"/>
<path d="M29.1196 0.694336H11.7693C5.28006 0.694336 0 5.95326 0 12.418V29.8596C0 36.3236 5.27939 41.5832 11.7693 41.5832H29.1196C35.6095 41.5832 40.8889 36.3236 40.8889 29.8596V12.418C40.8889 5.95392 35.6095 0.694336 29.1196 0.694336ZM36.9939 29.8596C36.9939 34.1845 33.4614 37.7033 29.1196 37.7033H11.7693C7.42753 37.7033 3.89501 34.1845 3.89501 29.8596V12.418C3.89501 8.09307 7.42753 4.57424 11.7693 4.57424H29.1196C33.4614 4.57424 36.9939 8.09307 36.9939 12.418V29.8596Z" fill="url(#paint1_linear)"/>
<path d="M31.3414 12.6159C32.7283 12.6159 33.8527 11.4959 33.8527 10.1143C33.8527 8.73278 32.7283 7.61279 31.3414 7.61279C29.9544 7.61279 28.8301 8.73278 28.8301 10.1143C28.8301 11.4959 29.9544 12.6159 31.3414 12.6159Z" fill="black"/>
<path d="M31.3414 12.6159C32.7283 12.6159 33.8527 11.4959 33.8527 10.1143C33.8527 8.73278 32.7283 7.61279 31.3414 7.61279C29.9544 7.61279 28.8301 8.73278 28.8301 10.1143C28.8301 11.4959 29.9544 12.6159 31.3414 12.6159Z" fill="url(#paint2_linear)"/>
<defs>
<linearGradient id="paint0_linear" x1="20.4788" y1="10.5454" x2="20.4788" y2="31.5831" gradientUnits="userSpaceOnUse">
<stop stop-color="#7868FF"/>
<stop offset="1" stop-color="#FF5C4E"/>
</linearGradient>
<linearGradient id="paint1_linear" x1="38" y1="1.99988" x2="5" y2="39.9999" gradientUnits="userSpaceOnUse">
<stop stop-color="#7868FF"/>
<stop offset="1" stop-color="#FF5C4E"/>
</linearGradient>
<linearGradient id="paint2_linear" x1="31.3414" y1="7.61279" x2="31.3414" y2="12.6159" gradientUnits="userSpaceOnUse">
<stop stop-color="#7868FF"/>
<stop offset="1" stop-color="#FF5C4E"/>
</linearGradient>
</defs>
</svg>
